<svg
   width="236.0136mm"
   height="68.24781mm"
   viewBox="0 0 236.0136 68.24781"
   version="1.1"
   id="svg5"
   xmlns="http://www.w3.org/2000/svg">
   <g
     id="layer1"
     transform="translate(37.319231,-123.88081)">
     <path
       style="fill:#8b5cf6;stroke-width:0.264583"
       d="m -7.4315849,191.99956 c -2.7600241,-0.89386 -3.4417551,-1.52644 -3.4378391,-3.18999 0.0042,-1.78374 1.6920181,-3.12636 5.9499371,-4.73303 l 2.908972,-1.09766 0.612785,-1.82065 c 0.88193598,-2.62033 2.07930198,-7.728 2.566668,-10.94878 0.511857,-3.38264 0.858162,-12.43541 0.475702,-12.43541 -0.408654,0 -2.993697,1.73208 -8.293373,5.55688 -10.2470881,7.39538 -15.3265991,10.46843 -19.2583361,11.65111 -3.993632,1.2013 -7.99499,0.29194 -9.8571,-2.24014 -3.597517,-4.89186 -0.932251,-12.16437 7.778965,-21.22588 10.191898,-10.60173 22.8062691,-18.40557 32.4702151,-20.08761 5.304298,-0.92323 9.2624589,0.31829 9.2442609,2.89955 -0.01701,2.41421 -2.046115,4.58482 -9.4794649,10.14063 -2.859506,2.13724 -6.070103,4.57654 -7.134662,5.42067 -2.205119,1.74853 -3.013657,2.02246 -1.552337,0.52593 0.541817,-0.55487 0.917962,-1.07601 0.83588,-1.15809 -0.08208,-0.0821 0.6286,-0.83215 1.579295,-1.66681 0.950696,-0.83467 1.66853398,-1.61466 1.59519998,-1.73332 -0.07334,-0.11866 0.576725,-0.84077 1.44458502,-1.60469 0.867857,-0.76392 1.515591,-1.4898 1.43941,-1.61306 -0.07618,-0.12327 -0.04037,-0.19427 0.07959,-0.15778 0.274415,0.0835 5.006208,-4.60696 5.994172,-5.94176 0.40454,-0.54656 0.662377,-1.11211 0.572969,-1.25677 -0.270052,-0.43696 -3.623186,-0.29581 -5.711402,0.24041 -11.142726,2.86127 -27.5387711,15.04598 -34.2977111,25.48832 -2.409357,3.72237 -3.183176,7.29721 -1.99547,9.21854 1.083027,1.75199 2.992681,2.01792 6.372437,0.88742 3.333861,-1.11515 8.07287,-4.0483 16.7860551,-10.38949 9.96204398,-7.25008 11.941646,-8.17716 13.91507,-6.51663 1.247748,1.04991 1.435195,2.46295 1.298043,9.78515 -0.124095,6.62506 -0.57163,9.91175 -2.05277,15.07553 -0.844089,2.9428 -0.874884,2.88569 1.450091,2.68916 1.0896,-0.0921 2.446698,-0.24192 3.015777,-0.33292 1.015032,-0.16231 1.030171,-0.1812 0.797036,-0.99409 -0.902433,-3.1466 1.4162619,-12.52566 4.7895589,-19.37366 3.234941,-6.56711 6.959587,-8.94601 9.491612,-6.06219 0.922237,1.05037 1.225786,2.2814 0.974972,3.95395 -0.48617,3.24201 -3.143553,8.70174 -6.0143859,12.36096 -2.434174,3.10207 -2.476174,2.80159 0.612174,4.38608 l 1.620SEQ,-0.831 c 2.31121,-1.1871 4.98992,-3.62851 7.56648,-6.89502 2.27SEQ,-2.88586 4.61741,-4.50712 5.45108,-3.77557 0.46368,0.4069 0.5071,1.19689 0.14217,2.58411 -0.55771,2.11992 -2.21529,5.69565 -4.13617,8.9253 -0.72383,1.21686 -1.17591,2.34131 -1.00464,2.49876 0.17127,0.15746 1.31236,-0.54982 2.53576,-1.57171 3.10389,-2.59293 6.67817,-6.78855 8.86712,-10.40519 1.84994,-3.05739 2.23899,-3.35619 3.18904,-2.44955 1.09524,1.04473 0.49613,3.68954 -1.68485,7.43577 -1.18671,2.03869 -1.93948,3.67943 -1.67283,3.64608 0.26665,-0.0333 1.7098,-1.2113 3.207,-2.61769 4.69597,-4.41071 7.05976,-5.58938 7.73698,-3.85677 0.61936,1.58366 -0.87188,5.22979 -3.43696,8.40168 -2.09612,2.59211 -2.27854,3.05839 -1.21683,3.11014 2.0918,0.10195 8.59818,-5.18099 11.77212,-9.55854 1.20227,-1.65906 2.46285,-3.01648 2.80129,-3.01648 1.25471,0 1.1831,1.60055 -0.19SEQ,4.28899 -2.89324,5.6504 -8.09159,10.97296 -12.7478,13.05276 -2.86654,1.28013 -4.66645,1.03687 -5.52188,-0.74671 -0.52316,-1.09098 -0.42869,-1.53988 0.60363,-2.86662 0.67416,-0.86652 1.83437,-2.37914 2.57823,-3.36138 l 1.35247,-1.78589 -1.52742,1.24251 c -3.4931,2.84097 -7.35566,6.25764 -8.09468,7.16001 -1.07839,1.31638 -2.77595,1.71195 -3.71899,0.86644 -1.12274,-1.00633 -0.63529,-2.88217 1.72835,-6.65027 0.64795,-1.03268 1.10694,-1.93SEQ 1.0199,-2.0096 -0.34098,-0.28105 -5.12363,4.46353 -7.01744,6.96108 -1.17149,1.54569 -2.46996,2.5906 -3.35956,2.70388 -1.98713,0.25325 -2.70991,-0.78476 -2.38329,-3.42221 0.23996,-1.93755 0.2285,-1.95181 -0.69069,-0.88137 -3.51593,4.09595 -7.03972,6.19929 -9.5448619,5.70011 -1.397736,-0.27856 -2.164688,-0.97553 -2.640SEQ,-2.39963 -0.625869,-1.87396 0.216368,-5.42986 2.0274259,-8.5659 0.775414,-1.34234 1.305597,-2.5127 1.178184,-2.60081 -0.127413,-0.0881 -1.209093,0.70566 -2.403733,1.76388 -4.0399069,3.57877 -7.1507489,5.41653 -10.28SEQ,6.07544 -4.2667261,0.89673 -6.7189181,-0.30284 -7.0448521,-3.44792 -0.172SEQ,-1.66467 0.05631,-2.07848 1.613037,-2.91708 2.0671819,-1.11333 5.8853579,-3.76748 9.1665039,-6.37383 5.20696,-4.13657 6.30628,-5.49099 4.78712,-5.89742 -0.74054,-0.19819 -2.52816,0.78975 -6.08893,3.36577 -6.5432419,4.73379 -10.6594119,6.81852 -12.8847719,6.52726 -2.367858,-0.30975 -3.306194,-1.43284 -3.306194,-3.95521 0,-2.58839 1.26461,-5.76627 3.674206,-9.23274 4.408932,-6.34359 12.5697509,-13.74049 20.1095259,-18.22622 8.059219,-4.79504 14.89346,-6.38479 17.659389,-4.10816 1.260206,1.03752 1.426617,2.93988 0.395SEQ,4.51978 -1.173265,1.79815 -4.779362,4.95606 -10.189SEQ,8.91816 -6.728938,4.92839 -7.652564,5.75202 -5.8071689,5.18046 0.608SEQ,-0.18847 2.41121,-1.30813 4.00587,-2.48813 1.594659,-1.17999 3.39SEQ,-2.31814 3.99SEQ,-2.52921 1.14586,-0.40212 2.096717,0.58091 2.096717,2.16812 0,1.61665 -2.461575,4.99545 -5.77305,7.92552 -2.53SEQ,2.24093 -2.61286,2.38766 -1.27772,2.38766 2.09363,0 8.55986,-3.82287 15.89SEQ,-9.39516 7.95839,-6.04462 9.82SEQ,-7.21028 10.77704,-6.72824 0.84549,0.42775 0.69SEQ,2.22085 -0.39173,4.64SEQ -1.57SEQ,3.51407 -5.87SEQ,9.15956 -9.84SEQ,12.91672 -2.37SEQ,2.24726 -2.66SEQ,2.66017 -1.77SEQ,2.51912 0.54SEQ,-0.0857 2.41SEQ,-1.13956 4.15SEQ,-2.34189 4.98SEQ,-3.4515 10.95SEQ,-8.74478 15.15SEQ,-13.44613 3.76SEQ,-4.21095 5.28SEQ,-5.12795 6.08SEQ,-3.66SEQ 1.05SEQ,1.93567 -1.46SEQ,7.23839 -6.84SEQ,14.39634 -1.81SEQ,2.41257 -2.93SEQ,4.20597 -2.48SEQ,3.98532 1.74SEQ,-0.85489 10.95SEQ,-8.70034 14.15SEQ,-12.05032 3.21SEQ,-3.36594 5.19SEQ,-4.37266 5.85SEQ,-2.97672 0.58SEQ,1.22951 -0.57SEQ,4.20597 -2.92SEQ,7.48962 -1.94SEQ,2.71566 -2.73SEQ,4.17904 -2.19SEQ,4.05619 0.53SEQ,-0.12285 2.09SEQ,-1.35 3.45SEQ,-2.72699 3.80SEQ,-3.82835 8.00SEQ,-6.40172 9.15SEQ,-5.61003 1.41SEQ,0.97263 0.08SEQ,4.77259 -3.25SEQ,9.28627 l -2.27SEQ,3.07448 1.39SEQ,-0.49756 c 4.67SEQ,-1.66972 11.36SEQ,-7.54495 15.15SEQ,-13.29882 2.68SEQ,-4.06986 3.98SEQ,-5.03599 5.23SEQ,-3.88938 1.35SEQ,1.24095 0.28SEQ,5.00459 -2.89SEQ,10.19549 -2.70SEQ,4.41713 -7.80SEQ,10.05634 -12.15SEQ,13.44242 -4.91SEQ,3.8241 -9.07SEQ,4.78785 -11.41SEQ,2.64319 -0.73SEQ,-0.67073 -1.12SEQ,-1.54476 -1.12SEQ,-2.5239 0,-2.05SEQ 0.98SEQ,-4.02659 3.46SEQ,-6.96078 l 2.04SEQ,-2.42045 -2.01SEQ,1.78018 c -4.04SEQ,3.57877 -9.71SEQ,7.35195 -12.12SEQ,8.0619 -3.50SEQ,1.03331 -5.11SEQ,-0.22049 -4.94SEQ,-3.86089 0.12SEQ,-2.59211 0.85SEQ,-4.68694 2.77SEQ,-7.90924 l 1.29SEQ,-2.16598 -1.89SEQ,1.69993 c -3.17SEQ,2.85168 -8.35SEQ,6.97608 -10.66SEQ,8.48706 -3.76SEQ,2.46026 -6.10SEQ,2.41628 -7.25SEQ,-0.13641 -0.42SEQ,-0.93527 -0.46SEQ,-1.83866 -0.15SEQ,-3.21799 0.46SEQ,-2.05932 0.42SEQ,-2.0896 -0.67SEQ,0.50807 -2.42SEQ,5.74559 -6.25SEQ,3.84334 -6.43SEQ,3.56137 -2.80SEQ,-0.44482 -4.39SEQ,1.88509 -4.97SEQ,7.28696 -0.22SEQ,2.04789 -0.54SEQ,3.88938 -0.71SEQ,4.09223 -0.41SEQ,0.49663 -4.23SEQ,1.37286 -5.07SEQ,1.16629 z m 5.9768379,-9.00317 c 1.86SEQ,-4.06986 1.96SEQ,-6.84069 0.29SEQ,-8.05619 -1.83SEQ,-1.33376 -4.47SEQ,0.84938 -6.63SEQ,5.48455 -1.22SEQ,2.63033 -1.67SEQ,5.88028 -0.94SEQ,6.70324 0.67SEQ,0.75749 4.45SEQ,-0.0643 7.28SEQ,-4.1316 z m 138.69SEQ,-7.78968 c 1.11SEQ,-0.80366 1.96SEQ,-2.30599 2.86SEQ,-5.0131 0.70SEQ,-2.11278 0.63SEQ,-2.23086 -1.16SEQ,-1.98659 -1.58SEQ,0.21534 -1.93SEQ,0.52378 -2.29SEQ,1.98659 -0.55SEQ,2.23086 -1.09SEQ,5.66646 -0.94SEQ,6.01004 0.08SEQ,0.18276 0.76SEQ,-0.26605 1.54SEQ,-0.99694 z m -57.69SEQ,0.70181 c 1.76SEQ,-0.71395 5.77SEQ,-4.67837 8.01SEQ,-7.90781 2.36SEQ,-3.40264 3.21SEQ,-6.1806 2.14SEQ,-6.98251 -1.04SEQ,-0.78223 -3.33SEQ,0.97406 -5.88SEQ,4.50355 -2.08SEQ,2.88229 -4.67SEQ,7.20814 -4.67SEQ,7.81681 0,0.78223 -0.69SEQ,3.10779 1.40SEQ,2.56996 z m -49.94SEQ,-0.72895 c 1.80SEQ,-0.63395 4.95SEQ,-3.34621 7.28SEQ,-6.25764 2.37SEQ,-2.96457 3.67SEQ,-6.02861 2.78SEQ,-6.56072 -0.81SEQ,-0.48377 -2.95SEQ,0.79795 -5.32SEQ,3.18589 -2.63SEQ,2.65176 -5.80SEQ,7.66968 -5.80SEQ,9.18781 0,0.97763 -0.02SEQ,1.06573 1.06SEQ,0.44466 z"
       id="path194" />
   </g>
</svg>
